<svg id="Layer_1" data-name="Layer 1" xmlns="http://www.w3.org/2000/svg" viewBox="0 0 38.5 40.02"><defs><style>.cls-1{fill:#fff;fill-rule:evenodd;}</style></defs><title>ICOArtboard 2</title><path class="cls-1" d="M19.25,4.12A16.29,16.29,0,0,0,14.1,35.87c.81.15,1.11-.35,1.11-.79s0-1.41,0-2.77c-4.53,1-5.49-2.18-5.49-2.18a4.31,4.31,0,0,0-1.81-2.38c-1.48-1,.11-1,.11-1a3.42,3.42,0,0,1,2.5,1.68,3.47,3.47,0,0,0,4.74,1.35,3.48,3.48,0,0,1,1-2.18c-3.62-.41-7.42-1.81-7.42-8.05a6.3,6.3,0,0,1,1.68-4.37,5.86,5.86,0,0,1,.16-4.31s1.37-.44,4.48,1.67a15.44,15.44,0,0,1,8.16,0c3.11-2.11,4.48-1.67,4.48-1.67A5.85,5.85,0,0,1,28,15.19a6.29,6.29,0,0,1,1.67,4.37c0,6.26-3.81,7.63-7.44,8a3.89,3.89,0,0,1,1.11,3c0,2.18,0,3.93,0,4.47s.29.94,1.12.78A16.29,16.29,0,0,0,19.25,4.12Z"/></svg>