<?xml version="1.0" encoding="utf-8"?>
<!-- Generator: Adobe Illustrator 21.0.2, SVG Export Plug-In . SVG Version: 6.00 Build 0)  -->
<svg version="1.1"
	 id="Layer_1" xmlns:cc="http://creativecommons.org/ns#" xmlns:dc="http://purl.org/dc/elements/1.1/" xmlns:inkscape="http://www.inkscape.org/namespaces/inkscape" xmlns:rdf="http://www.w3.org/1999/02/22-rdf-syntax-ns#" xmlns:sodipodi="http://sodipodi.sourceforge.net/DTD/sodipodi-0.dtd" xmlns:svg="http://www.w3.org/2000/svg"
	 xmlns="http://www.w3.org/2000/svg" xmlns:xlink="http://www.w3.org/1999/xlink" x="0px" y="0px" viewBox="0 0 60 60"
	 style="enable-background:new 0 0 60 60;" xml:space="preserve">
<style type="text/css">
	.st0{fill:#FFFFFF;}
</style>
<g transform="translate(0,-992.3622)">
	<path class="st0" d="M30,1041.4c0.5,0,1.1-0.3,1.4-0.6l17-16c0.8-0.7,0.9-2,0.1-2.8c-0.7-0.8-2.1-0.8-2.8-0.1L32,1034.7v-29.4
		c0-1.1-0.9-2-2-2s-2,0.9-2,2v29.4l-13.6-12.8c-0.8-0.7-2.1-0.7-2.8,0.1c-0.8,0.8-0.7,2.1,0.1,2.8l17,16
		C29.1,1041.3,29.5,1041.4,30,1041.4z"/>
</g>
</svg>
