<?xml version="1.0" encoding="utf-8"?>
<!-- Generator: Adobe Illustrator 21.1.0, SVG Export Plug-In . SVG Version: 6.00 Build 0)  -->
<svg version="1.1" id="Layer_1" xmlns="http://www.w3.org/2000/svg" xmlns:xlink="http://www.w3.org/1999/xlink" x="0px" y="0px"
	 viewBox="0 0 70.4 92.3" style="enable-background:new 0 0 70.4 92.3;" xml:space="preserve">
<title>ICON_iot-manifesto</title>
<path d="M22,0.1L0.9,21.2v71.1h69.5V0.1H22z M20.8,6.9V20H7.7L20.8,6.9z M66.3,88.3H4.9V24h19.9V4.1h41.5V88.3z"/>
<path d="M26.5,41.3v15.8h-4.1V41.3H26.5z"/>
<path d="M38.3,50.6c0,1.6,0,2.7-0.1,3.4c-0.2,1.4-1,2.5-2.3,3.1c-0.7,0.3-1.5,0.5-2.3,0.4c-0.8,0-1.6-0.1-2.3-0.4
	c-1.3-0.5-2.2-1.7-2.4-3c-0.1-1.1-0.1-2.3-0.1-3.4v-2.7c0-1.6,0-2.7,0.1-3.4c0.2-1.4,1-2.5,2.3-3.1c0.7-0.3,1.5-0.5,2.3-0.4
	c0.8,0,1.6,0.1,2.3,0.4c1.3,0.5,2.2,1.7,2.4,3c0.1,1.1,0.1,2.3,0.1,3.4V50.6z M34.2,45.4c0-0.5,0-0.9-0.1-1.4
	c-0.1-0.2-0.3-0.3-0.5-0.3c-0.2,0-0.4,0.1-0.5,0.2c-0.2,0.5-0.2,1-0.2,1.5v7.4c0,0.6,0,1.1,0.1,1.7c0.1,0.2,0.3,0.3,0.5,0.3
	c0.2,0,0.5-0.1,0.5-0.4c0.1-0.6,0.1-1.2,0.1-1.8L34.2,45.4z"/>
<path d="M48.8,41.3v3.2h-2.4v12.7h-4.1V44.5h-2.4v-3.2H48.8z"/>
</svg>
