<?xml version="1.0" encoding="utf-8"?>
<!-- Generator: Adobe Illustrator 21.0.2, SVG Export Plug-In . SVG Version: 6.00 Build 0)  -->
<svg version="1.1" id="Logo" xmlns="http://www.w3.org/2000/svg" xmlns:xlink="http://www.w3.org/1999/xlink" x="0px" y="0px"
	 viewBox="0 0 512 512" style="enable-background:new 0 0 512 512;" xml:space="preserve">
<style type="text/css">
	.st0{fill:#FFFFFF;}
</style>
<g>
	<path class="st0" d="M256,49.5c67.3,0,75.2,0.3,101.8,1.5c24.6,1.1,37.9,5.2,46.8,8.7c11.8,4.6,20.2,10,29,18.8
		c8.8,8.8,14.3,17.2,18.8,29c3.4,8.9,7.6,22.2,8.7,46.8c1.2,26.6,1.5,34.5,1.5,101.8s-0.3,75.2-1.5,101.8
		c-1.1,24.6-5.2,37.9-8.7,46.8c-4.6,11.8-10,20.2-18.8,29c-8.8,8.8-17.2,14.3-29,18.8c-8.9,3.4-22.2,7.6-46.8,8.7
		c-26.6,1.2-34.5,1.5-101.8,1.5s-75.2-0.3-101.8-1.5c-24.6-1.1-37.9-5.2-46.8-8.7c-11.8-4.6-20.2-10-29-18.8
		c-8.8-8.8-14.3-17.2-18.8-29c-3.4-8.9-7.6-22.2-8.7-46.8c-1.2-26.6-1.5-34.5-1.5-101.8s0.3-75.2,1.5-101.8
		c1.1-24.6,5.2-37.9,8.7-46.8c4.6-11.8,10-20.2,18.8-29c8.8-8.8,17.2-14.3,29-18.8c8.9-3.4,22.2-7.6,46.8-8.7
		C180.8,49.7,188.7,49.5,256,49.5 M256,4.1c-68.4,0-77,0.3-103.9,1.5C125.3,6.8,107,11.1,91,17.3c-16.6,6.4-30.6,15.1-44.6,29.1
		c-14,14-22.6,28.1-29.1,44.6c-6.2,16-10.5,34.3-11.7,61.2C4.4,179,4.1,187.6,4.1,256c0,68.4,0.3,77,1.5,103.9
		c1.2,26.8,5.5,45.1,11.7,61.2c6.4,16.6,15.1,30.6,29.1,44.6c14,14,28.1,22.6,44.6,29.1c16,6.2,34.3,10.5,61.2,11.7
		c26.9,1.2,35.4,1.5,103.9,1.5s77-0.3,103.9-1.5c26.8-1.2,45.1-5.5,61.2-11.7c16.6-6.4,30.6-15.1,44.6-29.1
		c14-14,22.6-28.1,29.1-44.6c6.2-16,10.5-34.3,11.7-61.2c1.2-26.9,1.5-35.4,1.5-103.9s-0.3-77-1.5-103.9
		c-1.2-26.8-5.5-45.1-11.7-61.2c-6.4-16.6-15.1-30.6-29.1-44.6c-14-14-28.1-22.6-44.6-29.1c-16-6.2-34.3-10.5-61.2-11.7
		C333,4.4,324.4,4.1,256,4.1L256,4.1z"/>
	<path class="st0" d="M256,126.6c-71.4,0-129.4,57.9-129.4,129.4S184.6,385.4,256,385.4S385.4,327.4,385.4,256
		S327.4,126.6,256,126.6z M256,340c-46.4,0-84-37.6-84-84s37.6-84,84-84c46.4,0,84,37.6,84,84S302.4,340,256,340z"/>
	<circle class="st0" cx="390.5" cy="121.5" r="30.2"/>
</g>
</svg>
