<svg id="Layer_1" data-name="Layer 1" xmlns="http://www.w3.org/2000/svg" viewBox="0 0 82.8 82.4"><title>ICO_download</title><path d="M6.6,30V80.7a8.51,8.51,0,0,0,8.6,8.5H80.9a8.49,8.49,0,0,0,8.5-8.5V30a8.51,8.51,0,0,0-8.6-8.5H67.9a3,3,0,0,0-3,3h0a3,3,0,0,0,3,3H80.7a2.65,2.65,0,0,1,2.6,2.6V80.7a2.5,2.5,0,0,1-2.6,2.5H15.1a2.65,2.65,0,0,1-2.6-2.6V30a2.5,2.5,0,0,1,2.6-2.5H25.3a3,3,0,0,0,3-3h0a3,3,0,0,0-3-3H15.1A8.56,8.56,0,0,0,6.6,30Z" transform="translate(-6.6 -6.8)"/><path d="M44.3,9.7V48.4l-6.4-5.5a3,3,0,0,0-4.2.3h0a3,3,0,0,0,.3,4.2l11.3,9.7a3.21,3.21,0,0,0,4,0l11.2-9.7a2.91,2.91,0,0,0,.3-4.2h0a3,3,0,0,0-4.3-.3l-6.4,5.4V9.7a2.9,2.9,0,0,0-2.9-2.9h0A2.9,2.9,0,0,0,44.3,9.7Z" transform="translate(-6.6 -6.8)"/></svg>