<?xml version="1.0" encoding="UTF-8" standalone="no"?>
<!-- Generator: Adobe Illustrator 21.0.2, SVG Export Plug-In . SVG Version: 6.00 Build 0)  -->

<svg
   xmlns:dc="http://purl.org/dc/elements/1.1/"
   xmlns:cc="http://creativecommons.org/ns#"
   xmlns:rdf="http://www.w3.org/1999/02/22-rdf-syntax-ns#"
   xmlns:svg="http://www.w3.org/2000/svg"
   xmlns="http://www.w3.org/2000/svg"
   xmlns:sodipodi="http://sodipodi.sourceforge.net/DTD/sodipodi-0.dtd"
   xmlns:inkscape="http://www.inkscape.org/namespaces/inkscape"
   version="1.1"
   id="Layer_1"
   x="0px"
   y="0px"
   viewBox="0 0 400 400"
   style="enable-background:new 0 0 400 400;"
   xml:space="preserve"
   inkscape:version="0.91 r13725"
   sodipodi:docname="ICO_twitter.svg"><metadata
     id="metadata14"><rdf:RDF><cc:Work
         rdf:about=""><dc:format>image/svg+xml</dc:format><dc:type
           rdf:resource="http://purl.org/dc/dcmitype/StillImage" /><dc:title></dc:title></cc:Work></rdf:RDF></metadata><defs
     id="defs12" /><sodipodi:namedview
     pagecolor="#ffffff"
     bordercolor="#666666"
     borderopacity="1"
     objecttolerance="10"
     gridtolerance="10"
     guidetolerance="10"
     inkscape:pageopacity="0"
     inkscape:pageshadow="2"
     inkscape:window-width="1036"
     inkscape:window-height="883"
     id="namedview10"
     showgrid="false"
     inkscape:zoom="0.59"
     inkscape:cx="200"
     inkscape:cy="200"
     inkscape:window-x="2542"
     inkscape:window-y="344"
     inkscape:window-maximized="0"
     inkscape:current-layer="Layer_1" /><style
     type="text/css"
     id="style3">
	.st0{fill:#FFFFFF;}
</style><g
     id="Logo__x2014__FIXED"
     style="fill:#f05f40;fill-opacity:1;opacity:0.98"><g
       id="g6"
       style="fill:#f05f40;fill-opacity:1"><path
         class="st0"
         d="M153.6,301.6c94.3,0,145.9-78.2,145.9-145.9c0-2.2,0-4.4-0.1-6.6c10-7.2,18.7-16.3,25.6-26.6    c-9.2,4.1-19.1,6.8-29.5,8.1c10.6-6.3,18.7-16.4,22.6-28.4c-9.9,5.9-20.9,10.1-32.6,12.4c-9.4-10-22.7-16.2-37.4-16.2    c-28.3,0-51.3,23-51.3,51.3c0,4,0.5,7.9,1.3,11.7c-42.6-2.1-80.4-22.6-105.7-53.6c-4.4,7.6-6.9,16.4-6.9,25.8    c0,17.8,9.1,33.5,22.8,42.7c-8.4-0.3-16.3-2.6-23.2-6.4c0,0.2,0,0.4,0,0.7c0,24.8,17.7,45.6,41.1,50.3c-4.3,1.2-8.8,1.8-13.5,1.8    c-3.3,0-6.5-0.3-9.6-0.9c6.5,20.4,25.5,35.2,47.9,35.6c-17.6,13.8-39.7,22-63.7,22c-4.1,0-8.2-0.2-12.2-0.7    C97.7,293.1,124.7,301.6,153.6,301.6"
         id="path8"
         style="fill:#f05f40;fill-opacity:1" /></g></g></svg>