<svg xmlns="http://www.w3.org/2000/svg" viewBox="0 0 305.6 305.6"><defs><style>.cls-1{fill:#fff;}</style></defs><title>IoT_logoArtboard 2</title><g id="White"><path id="White-2" data-name="White" class="cls-1" d="M271.52,19.35H34.08A14.73,14.73,0,0,0,19.35,34.08V271.52a14.73,14.73,0,0,0,14.73,14.73H161.91V182.89H127.13V142.61h34.78V112.91c0-34.47,21.05-53.24,51.81-53.24a285.37,285.37,0,0,1,31.08,1.59v36H223.47c-16.72,0-20,7.95-20,19.61v25.72h39.89l-5.19,40.28H203.5V286.25h68a14.73,14.73,0,0,0,14.73-14.73V34.08A14.73,14.73,0,0,0,271.52,19.35Z"/></g></svg>