<?xml version="1.0" encoding="utf-8"?>
<!-- Generator: Adobe Illustrator 21.0.2, SVG Export Plug-In . SVG Version: 6.00 Build 0)  -->
<svg version="1.1"
	 id="Layer_1" xmlns:cc="http://creativecommons.org/ns#" xmlns:dc="http://purl.org/dc/elements/1.1/" xmlns:inkscape="http://www.inkscape.org/namespaces/inkscape" xmlns:rdf="http://www.w3.org/1999/02/22-rdf-syntax-ns#" xmlns:sodipodi="http://sodipodi.sourceforge.net/DTD/sodipodi-0.dtd" xmlns:svg="http://www.w3.org/2000/svg"
	 xmlns="http://www.w3.org/2000/svg" xmlns:xlink="http://www.w3.org/1999/xlink" x="0px" y="0px" viewBox="0 0 60 60"
	 style="enable-background:new 0 0 60 60;" xml:space="preserve">
<style type="text/css">
	.st0{fill:#000000;}
</style>
<g transform="translate(0,-992.3622)">
	<path class="st0" d="M49,1022.4c0-0.5-0.3-1.1-0.6-1.4l-16-17c-0.7-0.8-2-0.9-2.8-0.1c-0.8,0.7-0.8,2.1-0.1,2.8l12.8,13.6H13
		c-1.1,0-2,0.9-2,2s0.9,2,2,2h29.4L29.5,1038c-0.7,0.8-0.7,2.1,0.1,2.8c0.8,0.8,2.1,0.7,2.8-0.1l16-17
		C48.9,1023.3,49,1022.8,49,1022.4z"/>
</g>
</svg>
