<svg id="Layer_1" data-name="Layer 1" xmlns="http://www.w3.org/2000/svg" viewBox="0 0 421 102"><title>iot_logo_00</title><path d="M20.63,28.8H29V72.6H20.63Z"/><path d="M36.53,57.6A15.54,15.54,0,1,1,52.07,73.2,15.52,15.52,0,0,1,36.53,57.6Zm23.1,0a7.7,7.7,0,0,0-7.56-7.8,7.81,7.81,0,0,0,0,15.6A7.7,7.7,0,0,0,59.63,57.6Z"/><path d="M79.91,36.78H68.27v-8H99.89v8H88.25V72.6H79.91Z"/><path d="M116.39,65.1,124.25,62a6.27,6.27,0,0,0,6.3,4.08c2.7,0,4.14-1.26,4.14-2.7,0-1.62-2.94-2.1-6.42-2.76-5.4-1-10.8-2.82-10.8-9.24,0-5,4.86-9.54,12.3-9.42,6.72,0,10.56,2.76,12.72,7L135.23,52a5.62,5.62,0,0,0-5.52-3.3c-2.7,0-3.9,1.14-3.9,2.46s1.74,1.8,6.24,2.7c5,1,10.86,2.82,10.86,9.3,0,4.38-4.08,10.14-12.72,10C122.93,73.2,118.55,70.38,116.39,65.1Z"/><path d="M145.91,57.6A15.57,15.57,0,0,1,161.51,42C170.69,42,177,48.9,177,57.54v3H153.83c1,3.3,3.66,5.46,8,5.46a7.94,7.94,0,0,0,7.38-4.68l6.54,3.9a15.29,15.29,0,0,1-14,8C152.39,73.2,145.91,66.24,145.91,57.6Zm8.28-3.66h14.52c-1.08-3.12-3.66-4.74-7.14-4.74A7.84,7.84,0,0,0,154.19,53.94Z"/><path d="M181.19,42.6h8.16v4.92c1.5-3.12,4.2-4.92,8.28-4.92h3.3v8h-5.22c-4.38,0-6.3,2.28-6.3,7.86V72.6h-8.22Z"/><path d="M203.27,42.6h8.46l7,19.5,6.84-19.5h8.34l-11,30h-8.28Z"/><path d="M237.59,31.38h8.22V39.6h-8.22Zm0,11.22h8.22v30h-8.22Z"/><path d="M249.77,57.6A15.52,15.52,0,0,1,265.31,42a15.3,15.3,0,0,1,14.46,9.48l-7.32,3.12a7.8,7.8,0,1,0,0,6l7.32,3.12a15.3,15.3,0,0,1-14.46,9.48A15.52,15.52,0,0,1,249.77,57.6Z"/><path d="M282,57.6A15.57,15.57,0,0,1,297.65,42c9.18,0,15.48,6.9,15.48,15.54v3H290c1,3.3,3.66,5.46,8,5.46a7.94,7.94,0,0,0,7.38-4.68l6.54,3.9a15.29,15.29,0,0,1-14,8C288.53,73.2,282,66.24,282,57.6Zm8.28-3.66h14.52c-1.08-3.12-3.66-4.74-7.14-4.74A7.84,7.84,0,0,0,290.33,53.94Z"/><path d="M344.87,51.66l-4.56,5.7V72.6H332V28.8h8.34V46.44L354.47,28.8h10.14l-13.8,17,15,26.76h-9.48Z"/><path d="M369.11,31.38h8.22V39.6h-8.22Zm0,11.22h8.22v30h-8.22Z"/><path d="M381.41,42.6h5.1v-7l8.22-4.5V42.6h5.64V50h-5.64v9.54c0,4.68.6,5.4,5.64,5.4V72.6h-1.2c-9.54,0-12.66-3.24-12.66-13V50h-5.1Z"/></svg>