
<svg width="108px" height="24px" viewBox="0 0 108 24" version="1.1" xmlns="http://www.w3.org/2000/svg" xmlns:xlink="http://www.w3.org/1999/xlink">
    <!-- Generator: Sketch 42 (36781) - http://www.bohemiancoding.com/sketch -->
    <desc>Created with Sketch.</desc>
    <defs></defs>
    <g id="Group" stroke="none" stroke-width="1" fill="none" fill-rule="evenodd">
        <path d="M0.956,19.727 L2.347,17.253 C2.586,16.863 3.148,16.923 3.355,17.073 C3.473,17.133 5.606,18.713 7.561,18.713 C8.746,18.713 9.605,17.968 9.605,16.923 C9.605,15.671 8.568,14.716 6.553,13.911 C4.007,12.9 0.808,10.9 0.808,7.321 C0.808,4.369 3.088,1.386 7.649,1.386 C10.729,1.386 13.099,2.966 13.988,3.624 C14.343,3.831 14.285,4.369 14.165,4.577 L12.655,6.872 C12.447,7.202 11.915,7.47 11.648,7.262 C11.381,7.112 9.22,5.472 7.412,5.472 C6.347,5.472 5.546,6.187 5.546,6.992 C5.546,8.096 6.436,8.932 8.776,9.886 C11.086,10.81 14.758,12.63 14.758,16.685 C14.758,19.758 12.122,22.859 7.768,22.859 C3.918,22.859 1.785,21.247 1.104,20.562 C0.808,20.264 0.719,20.145 0.956,19.727 L0.956,19.727 Z M17.131,2.251 C17.131,1.953 17.368,1.684 17.665,1.684 L24.891,1.684 C30.607,1.684 35.286,6.368 35.286,12.093 C35.286,17.879 30.607,22.56 24.891,22.56 L17.665,22.56 C17.368,22.56 17.131,22.293 17.131,21.994 L17.131,2.25 L17.131,2.251 Z M24.595,18.146 C27.942,18.146 30.37,15.492 30.37,12.092 C30.37,8.722 27.942,6.069 24.595,6.069 L21.751,6.069 L21.751,18.146 L24.595,18.146 Z M37.631,1.923 C37.631,1.625 37.898,1.386 38.194,1.386 L38.934,1.386 L50.751,12.837 L50.781,12.837 L50.781,2.252 C50.781,1.954 51.018,1.685 51.343,1.685 L54.898,1.685 C55.194,1.685 55.46,1.953 55.46,2.252 L55.46,22.322 C55.46,22.621 55.194,22.86 54.898,22.86 L54.425,22.86 C54.286001,22.8417589 54.1533428,22.7906838 54.038,22.711 L42.34,10.87 L42.31,10.87 L42.31,21.994 C42.3105314,22.1435824 42.2516191,22.2872493 42.1462235,22.393395 C42.0408278,22.4995408 41.8975824,22.5594705 41.748,22.56 L38.223,22.56 C37.9157233,22.5490498 37.6697707,22.3013466 37.661,21.994 L37.631,1.922 L37.631,1.923 Z" id="Shape" fill="#504D47" fill-rule="nonzero"></path>
        <path d="M70.43,23.519 C67.3518577,23.5266707 64.4008012,22.2921664 62.245,20.095 C60.0626518,17.8931231 58.8433987,14.9151243 58.855,11.815 C58.8431334,8.71452966 60.0624065,5.73612235 62.245,3.534 C64.4013683,1.33706415 67.3526243,0.102627252 70.431,0.11 C73.528,0.11 76.435,1.326 78.618,3.534 L91.218,16.28 C92.3808811,17.4649868 93.9727394,18.1305747 95.633,18.126 C97.2931701,18.1301207 98.8848593,17.4646035 100.048,16.28 C101.224374,15.0924152 101.881455,13.4865776 101.875,11.815 C101.880625,10.1432896 101.223689,8.53744581 100.048,7.349 C98.8847297,6.16458791 97.2931249,5.49910606 95.633,5.503 C93.963,5.503 92.396,6.157 91.218,7.349 L89.063,9.534 L85.29,5.717 L87.446,3.534 C89.6026758,1.33691145 92.5543003,0.102471217 95.633,0.11 C98.729,0.11 101.635,1.326 103.819,3.534 C106.001128,5.73643078 107.220318,8.71463652 107.209,11.815 C107.209,14.943 106.005,17.884 103.819,20.095 C101.662761,22.2921274 98.711421,23.5265997 95.633,23.519 C92.5541871,23.5270963 89.6023512,22.2925677 87.446,20.095 L74.846,7.349 C73.6831189,6.16401316 72.0912606,5.49842528 70.431,5.503 C68.7713874,5.49873741 67.180266,6.16431864 66.018,7.349 C64.8405612,8.53652624 64.1824065,10.1427113 64.188,11.815 C64.188,13.501 64.838,15.086 66.017,16.28 C67.179898,17.4643551 68.7711765,18.1298513 70.431,18.126 C72.101,18.126 73.668,17.471 74.845,16.28 L77.002,14.096 L80.772,17.911 L78.618,20.095 C76.4613891,22.2921843 73.5097223,23.5266422 70.431,23.519" id="Shape" fill="#AED800" fill-rule="nonzero"></path>
    </g>
</svg>
