<svg id="Layer_2" data-name="Layer 2" xmlns="http://www.w3.org/2000/svg" viewBox="0 0 60 60"><defs><style>.cls-1{fill:#fff;}.cls-2{fill:#329e41;}.cls-3{fill:#ff0307;}.cls-4{fill:#ff9100;}.cls-5{fill:#fff700;}.cls-6{fill:#41af46;}.cls-7{fill:#0068fd;}.cls-8{fill:#d903ca;}.cls-9{fill:#e8e8e8;}.cls-10{fill:#333e34;}.cls-11{fill:#c1c1c1;}.cls-12{fill:#6e1a15;}.cls-13{fill:#ff5240;}.cls-14{fill:#f0d6c3;}.cls-15{fill:#6ec872;}.cls-16{fill:#266826;}</style></defs><title>chilicorn_sticker</title><path class="cls-1" d="M2.83,40.83v-14h1v-3h1v-3h1v-2h1v-2h1v-1h1v-1h1v-2h-1v-1h-1v-1h-1v-1h-1v-1h-1v-1h-1v-3h1v-1h6v1h2v1h2v1h5v-1h3v-1h3v-1h14v1h3v1h3v1h2v1h2v1h1v1h1v1h1v1h1v1h1v1a4,4,0,0,1,1,0,4,4,0,0,0,0,1h1v1h1v1h1v2h1v2h1v3h1v3l1,0.08V40.83h-1v3h-1v3h-1v2h-1v2h-1v1h-1v1h-1v1h-1v1h-1v1h-1v1h-1v1h-1v1h-1v1h-2v1h-2v1h-3v1h-3v1h-14v-1h-3v-1h-3v-1h-2v-1h-2v-1h-1v-1h-1v-1h-1v-1h-1v-1h-1v-1h-1v-1h-1v-1h-1v-1h-1v-2h-1v-2h-1v-3h-1v-3h-1Z" transform="translate(-2.83 -3.83)"/><polygon class="cls-2" points="3 36 3 24 4 24 4 21 5 21 5 18 6 18 6 16 7 16 7 14 8 14 8 13 9 13 9 12 10 12 10 11 11 11 11 10 12 10 12 9 13 9 13 8 14 8 14 7 16 7 16 6 18 6 18 5 21 5 21 4 24 4 24 3 36 3 36 4 39 4 39 5 42 5 42 6 44 6 44 7 46 7 46 8 47 8 47 9 48 9 48 10 49 10 49 11 50 11 50 12 51 12 51 13 52 13 52 14 53 14 53 16 54 16 54 18 55 18 55 21 56 21 56 24 57 24 57 36 56 36 56 39 55 39 55 42 54 42 54 44 53 44 53 46 52 46 52 47 51 47 51 48 50 48 50 49 49 49 49 50 48 50 48 51 47 51 47 52 46 52 46 53 44 53 44 54 42 54 42 55 39 55 39 56 36 56 36 57 24 57 24 56 21 56 21 55 18 55 18 54 16 54 16 53 14 53 14 52 13 52 13 51 12 51 12 50 11 50 11 49 10 49 10 48 9 48 9 47 8 47 8 46 7 46 7 44 6 44 6 42 5 42 5 39 4 39 4 36 3 36"/><polygon class="cls-3" points="33 16 33 15 34 15 34 14 36 14 36 13 38 13 38 12 41 12 41 11 49 11 49 12 51 12 51 13 52 13 52 14 53 14 53 16 54 16 54 19 33 19 33 16"/><polygon class="cls-4" points="39 19 41 19 41 18 44 18 44 17 52 17 52 18 55 18 55 21 56 21 56 25 39 25 39 19"/><polygon class="cls-5" points="42 24 45 24 45 23 55 23 55 24 57 24 57 31 42 31 42 24"/><polygon class="cls-6" points="44 30 47 30 47 29 53 29 53 30 57 30 57 36 56 36 56 38 44 38 44 30"/><polygon class="cls-7" points="46 37 48 37 48 36 53 36 53 37 56 37 56 39 55 39 55 42 54 42 54 43 46 43 46 37"/><polygon class="cls-8" points="47 43 49 43 49 42 54 42 54 44 53 44 53 46 52 46 52 47 51 47 51 48 47 48 47 43"/><polygon class="cls-9" points="23 56 23 52 24 52 24 49 25 49 25 44 26 44 26 42 27 42 27 40 28 40 28 38 25 38 25 39 23 39 23 40 22 40 22 41 20 41 20 42 17 42 17 43 16 43 16 44 12 44 12 42 11 42 11 41 10 41 10 35 11 35 11 34 12 34 12 33 13 33 13 32 14 32 14 31 15 31 15 29 16 29 16 27 17 27 17 25 18 25 18 23 19 23 19 22 20 22 20 21 21 21 21 20 22 20 22 19 23 19 23 18 24 18 24 17 26 17 26 16 29 16 34 16 34 17 36 17 36 18 38 18 38 19 40 19 40 20 41 20 41 21 42 21 42 22 43 22 43 24 44 24 44 26 45 26 45 30 46 30 46 35 47 35 47 41 48 41 48 44 49 44 49 46 50 46 50 49 49 49 49 50 48 50 48 51 47 51 47 52 46 52 46 53 44 53 44 54 42 54 42 55 39 55 39 56 36 56 36 57 24 57 24 56 23 56"/><polygon class="cls-10" points="12 42 13 42 13 41 14 41 16 41 19 41 19 40 21 40 21 39 22 39 22 38 23 38 23 37 30 37 30 36 31 36 31 35 32 35 32 34 33 34 33 31 35 31 35 34 34 34 34 35 33 35 33 36 32 36 32 37 31 37 31 38 25 38 25 39 23 39 23 40 22 40 22 41 20 41 20 42 17 42 17 43 16 43 16 44 12 44 12 42"/><polygon class="cls-1" points="26 12 27 12 27 14 28 14 28 15 29 15 29 16 34 16 34 17 36 17 36 18 38 18 38 19 40 19 40 20 41 20 41 21 42 21 42 22 43 22 43 24 44 24 44 26 45 26 45 30 46 30 46 35 47 35 47 41 48 41 48 44 49 44 49 46 50 46 50 49 49 49 49 50 48 50 48 49 47 49 47 48 46 48 46 47 45 47 45 44 44 44 44 40 43 40 43 36 42 36 42 32.94 41 33 41 26 40 26 40 23 39 23 39 22 38 22 38 21 37 21 37 20 36 20 36 19 35 19 35 18 33 18 33 17 30 17 30 18 29 18 29 19 27 19 27 15 25 15 25 11 26 11 26 12"/><polygon class="cls-11" points="25 12 26 12 26 14 27 14 27 18 26 18 26 16 25 16 25 12"/><polygon class="cls-11" points="23 19 23 21 21 21 21 20 22 20 22 19 23 19"/><polygon class="cls-11" points="21 23 23 23 23 24 19 24 19 26 18 26 18 27 17 27 17 25 18 25 18 23 19 23 19 22 20 22 20 21 21 21 21 23"/><rect class="cls-11" x="16" y="27" width="1" height="2"/><polygon class="cls-11" points="17 31 17 33 14 33 14 34 13 34 13 35 11 35 11 34 12 34 12 33 13 33 13 32 14 32 14 31 15 31 15 29 16 29 16 31 17 31"/><polygon class="cls-11" points="10 35 10 41 11 41 11 40 12 40 12 39 13 39 13 37 11 37 11 35 10 35"/><rect class="cls-11" x="11" y="41" width="2" height="1"/><polygon class="cls-11" points="16 43 16 42 17 42 17 41 18 41 18 39 16 39 16 40 14 40 14 42 13 42 13 43 16 43"/><rect class="cls-11" x="19" y="40" width="1" height="1"/><polygon class="cls-11" points="22 39 23 39 23 38 25 38 25 37 27 37 27 36 26 36 26 35 24 35 24 34 23 34 23 33 21 33 21 34 22 34 22 35 23 35 23 37 21 37 21 38 20 38 20 40 22 40 22 39"/><rect class="cls-11" x="21" y="29" width="1" height="1"/><rect class="cls-11" x="22" y="28" width="1" height="1"/><rect class="cls-11" x="23" y="27" width="1" height="1"/><polygon class="cls-11" points="20 29 20 28 21 28 21 27 19 27 19 29 20 29"/><polygon class="cls-10" points="10 38 12 38 12 39 11 39 11 40 10 40 10 38"/><polygon class="cls-10" points="22 26 22 27 20 27 20 25 23 25 23 26 22 26"/><polygon class="cls-12" points="21 18 21 16 19 16 19 15 18 15 18 14 17 14 17 13 16 13 16 12 15 12 15 11 14 11 14 10 13 10 13 9 12 9 12 7 11 7 11 6 10 6 10 5 8 5 8 4 6 4 6 3 4 3 4 4 5 4 5 5 7 5 7 6 8 6 8 7 9 7 9 8 10 8 10 9 11 9 11 10 12 10 12 11 13 11 13 13 14 13 14 14 15 14 15 15 16 15 16 16 17 16 17 17 18 17 18 18 21 18"/><path class="cls-3" d="M24.83,20.83v-2h-1v-1h-2v-2a16,16,0,0,1-2,0,8,8,0,0,0,0-1h-1v-2h-3v-2h-1v-1h-1v-1h-1v-1h-3v1h2v1h1v1h1v2h1v1h1v2h1v1h1v1h1v1h1v1h1v1h4Z" transform="translate(-2.83 -3.83)"/><rect class="cls-3" x="5" y="3" width="2" height="1"/><rect class="cls-3" x="3" y="2" width="2" height="1"/><rect class="cls-13" x="5" y="2" width="1" height="1"/><rect class="cls-13" x="7" y="3" width="2" height="1"/><rect class="cls-13" x="10" y="4" width="1" height="1"/><rect class="cls-13" x="11" y="5" width="1" height="1"/><rect class="cls-13" x="12" y="6" width="1" height="1"/><polygon class="cls-13" points="12 8 13 8 13 7 15 7 15 8 16 8 16 9 17 9 17 10 18 10 18 11 20 11 20 12 21 12 21 13 22 13 22 14 23 14 23 16 20 16 20 15 17 15 17 14 18 14 18 13 17 13 17 12 14 12 14 11 15 11 15 9 13 9 13 10 12 10 12 8"/><polygon class="cls-14" points="20 13 21 13 21 14 22 14 22 16 20 16 20 15 19 15 19 14 20 14 20 13"/><polygon class="cls-15" points="22 16 23 16 23 18 24 18 24 19 22 19 22 16"/><polygon class="cls-16" points="21 17 22 17 22 18 23 18 23 19 22 19 22 18 21 18 21 17"/><polygon class="cls-11" points="23 56 23 52 24 52 24 49 25 49 25 44 26 44 26 42 27 42 27 40 28 40 28 38 31 38 31 37 32 37 32 36 33 36 33 35 34 35 34 34 35 34 35 31 34 31 34 27 33 27 33 25 34 25 34 26 35 26 35 27 36 27 36 29 37 29 37 35 36 35 36 37 35 37 35 39 34 39 34 40 33 40 33 41 32 41 32 42 31 42 31 43 30 43 30 44 29 44 29 46 28 46 28 48 27 48 27 51 26 51 26 54 25 54 25 57 24 57 24 56 23 56"/><polygon class="cls-11" points="28 57 31 57 31 52 32 52 32 48 33 48 33 45 32 45 32 47 31 47 31 49 30 49 30 52 29 52 29 55 28 55 28 57"/><polygon class="cls-1" points="32 26 33 26 33 27 34 27 34 34 33 34 33 35 32 35 32 36 31 36 31 37 27 37 27 36 26 36 26 35 29 35 29 34 30 34 30 33 31 33 31 30 32 30 32 26"/><polygon class="cls-1" points="41 37 42 37 42 41 43 41 43 44 42 44 42 41 41 41 41 37"/><rect class="cls-1" x="42" y="45" width="1" height="1"/></svg>