<?xml version="1.0" encoding="utf-8"?>
<!-- Generator: Adobe Illustrator 21.1.0, SVG Export Plug-In . SVG Version: 6.00 Build 0)  -->
<svg version="1.1" id="Layer_1" xmlns="http://www.w3.org/2000/svg" xmlns:xlink="http://www.w3.org/1999/xlink" x="0px" y="0px"
	 viewBox="0 0 595.3 175.9" style="enable-background:new 0 0 595.3 175.9;" xml:space="preserve">
<style type="text/css">
	.st0{fill:#329E41;}
</style>
<g>
	<path class="st0" d="M445.3,76c5.7,0,9.9,2.7,11.7,7.8h-23.8C435.2,79.2,439.6,76,445.3,76 M455.7,99.1c-2.4,2.8-5.9,4.4-9.9,4.5
		c0,0-0.1,0-0.1,0c-7.1,0-11.5-3.5-13.1-9h38v-4.9c0-14.2-10.3-25.5-25.4-25.5c-14.2,0-25.6,11.4-25.6,25.6
		c0,14.2,10.6,25.6,26,25.6c0.1,0,0.2,0,0.2,0c7.9-0.1,14.2-3,18.6-7.6L455.7,99.1z"/>
	<path class="st0" d="M408.2,99.1c-2.3,2.2-5.3,3.6-8.7,3.6c-0.1,0-0.2,0-0.3,0c-7-0.2-12.3-5.8-12.3-12.8c0-7,5.4-12.6,12.3-12.8
		c0.1,0,0.2,0,0.3,0c3.6,0,6.9,1.6,9.2,4.1l9.2-9.2c-4.5-4.7-10.9-7.6-18.5-7.6c-0.1,0-0.1,0-0.2,0c-14.1,0.1-25.3,11.5-25.3,25.6
		c0,14.1,11.2,25.5,25.3,25.6c0.1,0,0.1,0,0.2,0c7.3,0,13.5-2.7,18-7.1L408.2,99.1z"/>
	<path class="st0" d="M143.1,41.5c-9.9,0-18.1,8.7-18.4,20.3v52.7h13.5V77.3h17.5V65.2h-17.5v-3.3c0-4.6,2.9-7.4,6.7-7.4
		c2.5,0,4.4,1.4,5.3,2.9l8.2-8.2C154.3,43.4,148.7,41.5,143.1,41.5"/>
	<path class="st0" d="M195.5,65.2v27.5c0,5.1-4,9.2-9.1,9.2c-5.1,0-9.1-4.1-9.1-9.2V65.2h-13.7v27.5c0,12.6,10.2,22.8,22.8,22.8
		c12.6,0,22.8-10.2,22.8-22.8V65.2H195.5z"/>
	<path class="st0" d="M290.3,65.2v27.5c0,5.1-4,9.2-9.1,9.2c-5.1,0-9.1-4.1-9.1-9.2V65.2h-13.7v27.5c0,12.6,10.2,22.8,22.8,22.8
		S304,105.2,304,92.6V65.2H290.3z"/>
	<path class="st0" d="M231.3,65.2L231.3,65.2l-0.2,0V46.8h-13.5v18.3v0v12.1v15.3c0,10,6.5,18.4,14.9,20.9c3.1,0.9,7.9,0.9,7.9,0.9
		h9.7v-12.6h-9.6c-5.1,0-9.1-4.1-9.1-9.2V77.3h9.1h9.7v-1.6v-8.8v-1.6H231.3z"/>
	<polygon class="st0" points="325.9,65.2 312.4,65.2 312.4,80 312.4,114.4 325.9,114.4 325.9,77.3 344.9,77.3 344.9,65.2 	"/>
	<rect x="353.3" y="65.2" class="st0" width="13.5" height="49.2"/>
	<path class="st0" d="M368.7,50.1c0,4.8-3.9,8.6-8.6,8.6c-4.8,0-8.6-3.9-8.6-8.6s3.9-8.6,8.6-8.6C364.8,41.4,368.7,45.3,368.7,50.1"
		/>
</g>
</svg>
