<svg id="Layer_1" data-name="Layer 1" xmlns="http://www.w3.org/2000/svg" viewBox="0 0 1000 500"><defs><style>.cls-1{fill:#329e41;}</style></defs><title>Futurice_Logo_Green_RGB</title><path class="cls-1" d="M871.43,262.18c0-11.51-5.32-23.25-23.25-23.25-15.5,0-22.81,11.51-24.14,23.25Zm27.46,42.3C888.93,322,873.65,333,849.07,333c-36.32,0-55.14-23-55.14-59.35,0-36.09,21.26-58,53.59-58,31,0,52.48,16.61,52.48,52.7v13.29H823.6c.67,18.38,11.29,27.68,24.8,27.68,12.4,0,21.92-6.2,27-16.83Zm-172.27-88.8c27,0,41.85,11.52,49.16,35l-27,6.64C745,246,738.14,240.26,727.51,240.26c-16.61,0-25,11.29-25,34.1s8.19,34.1,25,34.1c10.63,0,17.49-5.76,21.26-17.05l27,6.64c-7.31,23.47-22.14,35-49.16,35-34.1,0-54.7-22.14-54.7-58.68s20.59-58.68,54.7-58.68M644.48,330.83H615.24V217.89h29.23ZM630.08,169.17a17.94,17.94,0,1,1-17.94,17.94,17.86,17.86,0,0,1,17.94-17.94m-35.2,73.3h-39.2v88.36H526.45V217.89h68.43ZM466.24,284.55V217.89h29.23v66.43c0,32.77-16.61,48.72-49.16,48.72s-49.38-15.94-49.38-48.72V217.89h29.23v66.65c0,17.27,7.09,23.92,20.15,23.92s19.93-6.64,19.93-23.92M308.58,175.82h29.23v42.08H373.9v24.58H337.81v50c0,12.18,6.42,15.95,14.84,15.95,6.64,0,10.41-2.44,15.06-6.64L379,322.63A50.81,50.81,0,0,1,347.55,333c-25.24,0-39-14.84-39-37Zm-58,108.73V217.89H279.8v66.43c0,32.77-16.61,48.72-49.16,48.72s-49.38-15.94-49.38-48.72V217.89h29.23v66.65c0,17.27,7.09,23.92,20.15,23.92s19.93-6.64,19.93-23.92M100,204.16C100,182,113.73,167,139,167A51.2,51.2,0,0,1,168.65,176l-11.52,20.37a20,20,0,0,0-13.73-4.87c-9.52,0-14.17,6-14.17,15.94v10.41h33.88v24.58H129.23v88.36H100Z"/></svg>