<?xml version="1.0" encoding="UTF-8" standalone="no"?>
<svg
   xmlns:dc="http://purl.org/dc/elements/1.1/"
   xmlns:cc="http://creativecommons.org/ns#"
   xmlns:rdf="http://www.w3.org/1999/02/22-rdf-syntax-ns#"
   xmlns:svg="http://www.w3.org/2000/svg"
   xmlns="http://www.w3.org/2000/svg"
   xmlns:sodipodi="http://sodipodi.sourceforge.net/DTD/sodipodi-0.dtd"
   xmlns:inkscape="http://www.inkscape.org/namespaces/inkscape"
   width="801px"
   height="168px"
   viewBox="0 0 801 168"
   version="1.1"
   id="svg2"
   inkscape:version="0.91 r13725"
   sodipodi:docname="Slice 1.svg">
  <metadata
     id="metadata15">
    <rdf:RDF>
      <cc:Work
         rdf:about="">
        <dc:format>image/svg+xml</dc:format>
        <dc:type
           rdf:resource="http://purl.org/dc/dcmitype/StillImage" />
      </cc:Work>
    </rdf:RDF>
  </metadata>
  <sodipodi:namedview
     pagecolor="#ffffff"
     bordercolor="#666666"
     borderopacity="1"
     objecttolerance="10"
     gridtolerance="10"
     guidetolerance="10"
     inkscape:pageopacity="0"
     inkscape:pageshadow="2"
     inkscape:window-width="735"
     inkscape:window-height="480"
     id="namedview13"
     showgrid="false"
     inkscape:zoom="0.34207241"
     inkscape:cx="400.5"
     inkscape:cy="84"
     inkscape:window-x="1596"
     inkscape:window-y="537"
     inkscape:window-maximized="0"
     inkscape:current-layer="svg2" />
  <!-- Generator: Sketch 43.2 (39069) - http://www.bohemiancoding.com/sketch -->
  <title
     id="title4">Slice 1</title>
  <desc
     id="desc6">Created with Sketch.</desc>
  <defs
     id="defs8" />
  <g
     id="Page-1"
     stroke="none"
     stroke-width="1"
     fill="none"
     fill-rule="evenodd"
     style="fill:#000000">
    <g
       id="futurice"
       fill-rule="nonzero"
       fill="#329E41"
       style="fill:#000000">
      <path
         d="M771.43,96.18 C771.43,84.67 766.11,72.93 748.18,72.93 C732.68,72.93 725.37,84.44 724.04,96.18 L771.43,96.18 Z M798.89,138.48 C788.93,156 773.65,167 749.07,167 C712.75,167 693.93,144 693.93,107.65 C693.93,71.56 715.19,49.65 747.52,49.65 C778.52,49.65 800,66.26 800,102.35 L800,115.64 L723.6,115.64 C724.27,134.02 734.89,143.32 748.4,143.32 C760.8,143.32 770.32,137.12 775.4,126.49 L798.89,138.48 Z M626.62,49.68 C653.62,49.68 668.47,61.2 675.78,84.68 L648.78,91.32 C645,80 638.14,74.26 627.51,74.26 C610.9,74.26 602.51,85.55 602.51,108.36 C602.51,131.17 610.7,142.46 627.51,142.46 C638.14,142.46 645,136.7 648.77,125.41 L675.77,132.05 C668.46,155.52 653.63,167.05 626.61,167.05 C592.51,167.05 571.91,144.91 571.91,108.37 C571.91,71.83 592.5,49.69 626.61,49.69 L626.62,49.68 Z M544.48,164.83 L515.24,164.83 L515.24,51.89 L544.47,51.89 L544.48,164.83 Z M530.08,3.17 C539.987988,3.17 548.02,11.2020116 548.02,21.11 C548.02,31.0179884 539.987988,39.05 530.08,39.05 C520.172012,39.05 512.14,31.0179884 512.14,21.11 C512.11861,16.3454911 514.001842,11.7699434 517.370893,8.40089291 C520.739943,5.03184238 525.315491,3.14861019 530.08,3.17 L530.08,3.17 Z M494.88,76.47 L455.68,76.47 L455.68,164.83 L426.45,164.83 L426.45,51.89 L494.88,51.89 L494.88,76.47 Z M366.24,118.55 L366.24,51.89 L395.47,51.89 L395.47,118.32 C395.47,151.09 378.86,167.04 346.31,167.04 C313.76,167.04 296.93,151.1 296.93,118.32 L296.93,51.89 L326.16,51.89 L326.16,118.54 C326.16,135.81 333.25,142.46 346.31,142.46 C359.37,142.46 366.24,135.82 366.24,118.54 L366.24,118.55 Z M208.58,9.82 L237.81,9.82 L237.81,51.9 L273.9,51.9 L273.9,76.48 L237.81,76.48 L237.81,126.48 C237.81,138.66 244.23,142.43 252.65,142.43 C259.29,142.43 263.06,139.99 267.71,135.79 L279,156.63 C269.968879,163.501803 258.897228,167.152455 247.55,167 C222.31,167 208.55,152.16 208.55,130 L208.58,9.82 Z M150.58,118.55 L150.58,51.89 L179.8,51.89 L179.8,118.32 C179.8,151.09 163.19,167.04 130.64,167.04 C98.09,167.04 81.26,151.1 81.26,118.32 L81.26,51.89 L110.49,51.89 L110.49,118.54 C110.49,135.81 117.58,142.46 130.64,142.46 C143.7,142.46 150.57,135.82 150.57,118.54 L150.58,118.55 Z M0,38.16 C0,16 13.73,1 39,1 C49.5756798,0.865546548 59.9334766,4.00956583 68.65,10 L57.13,30.37 C53.3283328,27.0782852 48.4261614,25.3394961 43.4,25.5 C33.88,25.5 29.23,31.5 29.23,41.44 L29.23,51.85 L63.11,51.85 L63.11,76.43 L29.23,76.43 L29.23,164.79 L0,164.79 L0,38.16 Z"
         id="Shape"
         style="fill:#000000" />
    </g>
  </g>
</svg>
