<?xml version="1.0" encoding="utf-8"?>
<!-- Generator: Adobe Illustrator 21.1.0, SVG Export Plug-In . SVG Version: 6.00 Build 0)  -->
<svg version="1.1" id="Layer_1" xmlns="http://www.w3.org/2000/svg" xmlns:xlink="http://www.w3.org/1999/xlink" x="0px" y="0px"
	 viewBox="0 0 92.7 92.3" style="enable-background:new 0 0 92.7 92.3;" xml:space="preserve">
<title>ICON_iot-manifesto</title>
<path d="M19,30.8v15.4h15.3V30.8H19z M30.5,42.3h-7.7v-7.7h7.7V42.3z"/>
<path d="M78.9,72.2c-3.6,0-6.6,3-6.6,6.6s3,6.6,6.6,6.6s6.6-3,6.6-6.6l0,0C85.5,75.2,82.5,72.2,78.9,72.2z M78.9,81.8
	c-1.7,0-3-1.3-3-3s1.3-3,3-3s3,1.3,3,3S80.6,81.8,78.9,81.8z"/>
<path d="M82,17.1H11c-1.9,0-3.5,1.5-3.5,3.5c0,0,0,0,0,0v61.1c0,1.9,1.6,3.5,3.5,3.5h33.8l6.9-18.7h33.9V20.7
	C85.5,18.7,84,17.2,82,17.1z M11.2,41.1h5.3v-4.5h-5.3V20.8h70.5v15.8H36.8v4.5h44.9v21.6H49l-6.5,18.7H11.2L11.2,41.1z"/>
<path d="M87.7,10.1H56.4c-0.4-2.2-1.3-4.2-2.8-5.9C51,1.4,46.9,0,41.6,0c-2.6-0.1-5.2,0.7-7.3,2.2c-2.5,0.4-4.8,1.6-6.6,3.5
	c-1.2,1.3-2.2,2.8-3,4.4H4.9C2.2,10.1,0,12.3,0,15v72.4c0,2.7,2.2,4.9,4.9,4.9h82.8c2.7,0,4.9-2.2,4.9-4.9V15
	C92.6,12.3,90.4,10.1,87.7,10.1z M51.7,5.9c1.1,1.2,1.8,2.6,2.1,4.2h-3.7c-0.5-1.6-1.3-3-2.4-4.2C46,4.2,43.9,3,41.5,2.5
	C46.2,2.5,49.6,3.7,51.7,5.9z M34,5.6c0.4-0.4,0.8-0.7,1.2-1c0.5-0.1,0.9-0.1,1.4-0.1c4.3,0,7.4,1,9.4,3.1c0.7,0.7,1.2,1.6,1.6,2.5
	H31C31.7,8.4,32.7,6.9,34,5.6z M29.4,7.5l0.3-0.3c-0.5,0.9-1,1.9-1.4,2.9h-0.8C28,9.1,28.6,8.2,29.4,7.5z M88.8,87.5
	c0,0.6-0.5,1.1-1.1,1.1H4.9c-0.6,0-1.1-0.5-1.1-1.1V15c0-0.6,0.5-1.1,1.1-1.1h82.8c0.6,0,1.1,0.5,1.1,1.1V87.5z"/>
<rect x="24.4" y="48.5" width="4.5" height="30.2"/>
<rect x="24.5" y="23.2" width="4.5" height="5.1"/>
</svg>
