<?xml version="1.0" encoding="UTF-8" standalone="no"?>
<svg
   xmlns:dc="http://purl.org/dc/elements/1.1/"
   xmlns:cc="http://creativecommons.org/ns#"
   xmlns:rdf="http://www.w3.org/1999/02/22-rdf-syntax-ns#"
   xmlns:svg="http://www.w3.org/2000/svg"
   xmlns="http://www.w3.org/2000/svg"
   xmlns:sodipodi="http://sodipodi.sourceforge.net/DTD/sodipodi-0.dtd"
   xmlns:inkscape="http://www.inkscape.org/namespaces/inkscape"
   viewBox="0 0 319.99999 319.99999"
   id="svg2"
   version="1.1"
   inkscape:version="0.91 r13725"
   sodipodi:docname="github.svg"
   width="320"
   height="320">
  <metadata
     id="metadata14">
    <rdf:RDF>
      <cc:Work
         rdf:about="">
        <dc:format>image/svg+xml</dc:format>
        <dc:type
           rdf:resource="http://purl.org/dc/dcmitype/StillImage" />
        <dc:title>IoT_logoArtboard 2</dc:title>
      </cc:Work>
    </rdf:RDF>
  </metadata>
  <sodipodi:namedview
     pagecolor="#ffffff"
     bordercolor="#666666"
     borderopacity="1"
     objecttolerance="10"
     gridtolerance="10"
     guidetolerance="10"
     inkscape:pageopacity="0"
     inkscape:pageshadow="2"
     inkscape:window-width="1982"
     inkscape:window-height="1108"
     id="namedview12"
     showgrid="true"
     inkscape:zoom="1.28"
     inkscape:cx="187.08178"
     inkscape:cy="108.14913"
     inkscape:window-x="1280"
     inkscape:window-y="0"
     inkscape:window-maximized="1"
     inkscape:current-layer="svg2"
     inkscape:object-paths="true"
     inkscape:snap-intersection-paths="true"
     inkscape:object-nodes="true"
     inkscape:snap-smooth-nodes="true"
     inkscape:snap-object-midpoints="true"
     inkscape:snap-center="true"
     inkscape:snap-others="false"
     fit-margin-top="0"
     fit-margin-left="0"
     fit-margin-right="0"
     fit-margin-bottom="0">
    <inkscape:grid
       type="xygrid"
       id="grid3699"
       originx="-360.00002"
       originy="359.99999" />
  </sodipodi:namedview>
  <defs
     id="defs4">
    <style
       id="style6">.cls-1{fill:#fff;}</style>
    <style
       id="style6-4">.cls-1{fill:#fff;}</style>
  </defs>
  <title
     id="title8">IoT_logoArtboard 2</title>
  <style
     id="style3466"
     type="text/css">
	.st0{fill:#F05245;}
</style>
  <path
     id="path3470"
     d="m 159.69128,34.999999 c -69.600374,0 -126.054022,56.453628 -126.054022,126.053991 0,54.13365 34.800178,102.85389 86.613792,119.8673 6.18671,1.54667 8.5067,-2.32 8.5067,-6.18669 0,-3.86668 0,-10.82672 0,-21.65345 -34.800169,7.73334 -42.533536,-17.01344 -42.533536,-17.01344 -2.320007,-7.73337 -6.960029,-13.92005 -13.920077,-18.56009 -11.600067,-7.73337 0.773339,-7.73337 0.773339,-7.73337 7.733377,0.77334 15.466744,6.18671 19.333436,13.14674 6.96005,13.14672 23.200148,17.78675 36.346838,10.82671 0,0 0,0 0,0 0.77335,-6.18669 3.09339,-12.37337 7.7334,-17.01341 -27.84015,-3.09335 -57.226965,-13.92007 -57.226965,-62.64033 0,-12.37341 4.640022,-24.74679 13.146727,-34.02686 -3.866692,-10.82673 -3.093354,-22.426781 1.546669,-33.253495 0,0 10.826729,-3.093345 34.800169,13.146716 20.88014,-5.413349 42.53359,-5.413349 63.41371,0 23.97345,-16.240061 34.80018,-13.146716 34.80018,-13.146716 4.64002,10.826714 5.41335,22.426765 1.54667,33.253495 8.50669,9.28007 13.14674,21.65345 13.14674,34.02686 0,48.72026 -29.38682,58.77363 -57.22699,61.867 6.18671,6.1867 9.28004,14.69341 8.5067,23.20011 0,17.01342 0,30.16017 0,34.80018 0,4.64004 2.32005,6.96004 8.50672,6.18672 C 267.18519,257.72116 301.98536,185.80079 279.55857,120.0671 260.99848,69.800165 213.8249,35.773317 159.69128,34.999999 Z"
     class="st0"
     inkscape:connector-curvature="0"
     style="fill:#299f65;fill-opacity:1" />
  <style
     id="style3"
     type="text/css">
	.st0{fill:#FFFFFF;}
</style>
  <style
     id="style3-5"
     type="text/css">
	.st0{fill:#FFFFFF;}
</style>
  <style
     id="style3801"
     type="text/css">
	.st0{fill:#F05245;}
</style>
</svg>
