<?xml version="1.0" encoding="UTF-8" standalone="no"?>
<svg
   xmlns:dc="http://purl.org/dc/elements/1.1/"
   xmlns:cc="http://creativecommons.org/ns#"
   xmlns:rdf="http://www.w3.org/1999/02/22-rdf-syntax-ns#"
   xmlns:svg="http://www.w3.org/2000/svg"
   xmlns="http://www.w3.org/2000/svg"
   xmlns:sodipodi="http://sodipodi.sourceforge.net/DTD/sodipodi-0.dtd"
   xmlns:inkscape="http://www.inkscape.org/namespaces/inkscape"
   viewBox="0 0 319.99999 319.99999"
   id="svg2"
   version="1.1"
   inkscape:version="0.91 r13725"
   sodipodi:docname="instagram.svg"
   width="320"
   height="320">
  <metadata
     id="metadata14">
    <rdf:RDF>
      <cc:Work
         rdf:about="">
        <dc:format>image/svg+xml</dc:format>
        <dc:type
           rdf:resource="http://purl.org/dc/dcmitype/StillImage" />
        <dc:title>IoT_logoArtboard 2</dc:title>
      </cc:Work>
    </rdf:RDF>
  </metadata>
  <sodipodi:namedview
     pagecolor="#ffffff"
     bordercolor="#666666"
     borderopacity="1"
     objecttolerance="10"
     gridtolerance="10"
     guidetolerance="10"
     inkscape:pageopacity="0"
     inkscape:pageshadow="2"
     inkscape:window-width="1982"
     inkscape:window-height="1108"
     id="namedview12"
     showgrid="true"
     inkscape:zoom="0.45254834"
     inkscape:cx="-18.940628"
     inkscape:cy="-17.575878"
     inkscape:window-x="1280"
     inkscape:window-y="0"
     inkscape:window-maximized="1"
     inkscape:current-layer="svg2"
     inkscape:object-paths="true"
     inkscape:snap-intersection-paths="true"
     inkscape:object-nodes="true"
     inkscape:snap-smooth-nodes="true"
     inkscape:snap-object-midpoints="true"
     inkscape:snap-center="true"
     inkscape:snap-others="false"
     fit-margin-top="0"
     fit-margin-left="0"
     fit-margin-right="0"
     fit-margin-bottom="0">
    <inkscape:grid
       type="xygrid"
       id="grid3699"
       originx="-720.00001"
       originy="359.99999" />
  </sodipodi:namedview>
  <defs
     id="defs4">
    <style
       id="style6">.cls-1{fill:#fff;}</style>
    <style
       id="style6-4">.cls-1{fill:#fff;}</style>
  </defs>
  <title
     id="title8">IoT_logoArtboard 2</title>
  <style
     id="style3466"
     type="text/css">
	.st0{fill:#F05245;}
</style>
  <style
     id="style3"
     type="text/css">
	.st0{fill:#FFFFFF;}
</style>
  <g
     style="fill:#299f65;fill-opacity:1"
     id="g5"
     transform="matrix(0.47628497,0,0,0.47628497,38.02341,38.047234)">
    <path
       style="fill:#299f65;fill-opacity:1"
       id="path7"
       d="m 256,49.5 c 67.3,0 75.2,0.3 101.8,1.5 24.6,1.1 37.9,5.2 46.8,8.7 11.8,4.6 20.2,10 29,18.8 8.8,8.8 14.3,17.2 18.8,29 3.4,8.9 7.6,22.2 8.7,46.8 1.2,26.6 1.5,34.5 1.5,101.8 0,67.3 -0.3,75.2 -1.5,101.8 -1.1,24.6 -5.2,37.9 -8.7,46.8 -4.6,11.8 -10,20.2 -18.8,29 -8.8,8.8 -17.2,14.3 -29,18.8 -8.9,3.4 -22.2,7.6 -46.8,8.7 -26.6,1.2 -34.5,1.5 -101.8,1.5 -67.3,0 -75.2,-0.3 -101.8,-1.5 -24.6,-1.1 -37.9,-5.2 -46.8,-8.7 -11.8,-4.6 -20.2,-10 -29,-18.8 -8.8,-8.8 -14.3,-17.2 -18.8,-29 -3.4,-8.9 -7.6,-22.2 -8.7,-46.8 -1.2,-26.6 -1.5,-34.5 -1.5,-101.8 0,-67.3 0.3,-75.2 1.5,-101.8 1.1,-24.6 5.2,-37.9 8.7,-46.8 4.6,-11.8 10,-20.2 18.8,-29 8.8,-8.8 17.2,-14.3 29,-18.8 8.9,-3.4 22.2,-7.6 46.8,-8.7 26.6,-1.3 34.5,-1.5 101.8,-1.5 M 256,4.1 C 187.6,4.1 179,4.4 152.1,5.6 125.3,6.8 107,11.1 91,17.3 74.4,23.7 60.4,32.4 46.4,46.4 32.4,60.4 23.8,74.5 17.3,91 11.1,107 6.8,125.3 5.6,152.2 4.4,179 4.1,187.6 4.1,256 c 0,68.4 0.3,77 1.5,103.9 1.2,26.8 5.5,45.1 11.7,61.2 6.4,16.6 15.1,30.6 29.1,44.6 14,14 28.1,22.6 44.6,29.1 16,6.2 34.3,10.5 61.2,11.7 26.9,1.2 35.4,1.5 103.9,1.5 68.5,0 77,-0.3 103.9,-1.5 26.8,-1.2 45.1,-5.5 61.2,-11.7 16.6,-6.4 30.6,-15.1 44.6,-29.1 14,-14 22.6,-28.1 29.1,-44.6 6.2,-16 10.5,-34.3 11.7,-61.2 1.2,-26.9 1.5,-35.4 1.5,-103.9 0,-68.5 -0.3,-77 -1.5,-103.9 C 505.4,125.3 501.1,107 494.9,90.9 488.5,74.3 479.8,60.3 465.8,46.3 451.8,32.3 437.7,23.7 421.2,17.2 405.2,11 386.9,6.7 360,5.5 333,4.4 324.4,4.1 256,4.1 l 0,0 z"
       class="st0"
       inkscape:connector-curvature="0" />
    <path
       style="fill:#299f65;fill-opacity:1"
       id="path9"
       d="m 256,126.6 c -71.4,0 -129.4,57.9 -129.4,129.4 0,71.5 58,129.4 129.4,129.4 71.4,0 129.4,-58 129.4,-129.4 0,-71.4 -58,-129.4 -129.4,-129.4 z m 0,213.4 c -46.4,0 -84,-37.6 -84,-84 0,-46.4 37.6,-84 84,-84 46.4,0 84,37.6 84,84 0,46.4 -37.6,84 -84,84 z"
       class="st0"
       inkscape:connector-curvature="0" />
    <circle
       style="fill:#299f65;fill-opacity:1"
       id="circle11"
       r="30.200001"
       cy="121.5"
       cx="390.5"
       class="st0" />
  </g>
  <style
     id="style3-5"
     type="text/css">
	.st0{fill:#FFFFFF;}
</style>
  <style
     id="style3801"
     type="text/css">
	.st0{fill:#F05245;}
</style>
</svg>
