<svg id="Layer_1" data-name="Layer 1" xmlns="http://www.w3.org/2000/svg" viewBox="0 0 48 48"><title>ICON_service</title><path d="M4.17,28.65H43.83a1,1,0,0,0,1-1c0-9.74-7.37-17.85-17.06-19.56a4.73,4.73,0,0,0,1.29-3.22,5.07,5.07,0,0,0-10.13,0,4.73,4.73,0,0,0,1.29,3.22C10.54,9.79,3.17,17.9,3.17,27.65A1,1,0,0,0,4.17,28.65ZM20.94,4.87a3.07,3.07,0,0,1,6.13,0,3.07,3.07,0,0,1-6.13,0ZM24,9.74c10,0,18.25,7.49,18.8,16.9H5.2C5.75,17.24,14,9.74,24,9.74Z" transform="translate(0 0)"/><path d="M42.23,34.54a3.77,3.77,0,0,0-4.55.54,10.3,10.3,0,0,1-3.87,2.3c-.75.33-1.61.7-2.5,1.14a7.07,7.07,0,0,1-3.12.46l2.21-.39c3-.57,3-2.37,3-2.91a2.66,2.66,0,0,0-2.51-2.32h-.92c-3,0-10.85.07-15.38.8C8.81,35.1,2.47,46,2.2,46.5A1,1,0,0,0,3.07,48H15.42a1,1,0,0,0,.91-.58c1.34-2.93,6.47-2.61,11-2.32.94.06,1.86.12,2.73.15h.23c5.75,0,11.82-7.1,12.08-7.41l.07-.09C43.44,36.24,43,35.1,42.23,34.54Zm-1.43,2c-1.65,1.94-6.72,6.79-10.68,6.65-.85,0-1.75-.09-2.67-.14C22.53,42.79,17,42.44,14.82,46h-10c2.23-3.49,6.59-9.3,10-9.85,4.38-.7,12.43-.76,15.08-.77.59,0,1,0,1,0a.87.87,0,0,1,.48.63c0,.15-.38.46-1.35.64C26.5,37.3,21.25,38,21.2,38a1,1,0,0,0-.1,2c.8.2,7.91,1.91,11.11.32.85-.42,1.64-.77,2.41-1.1,1.88-.82,3.5-1.53,4.61-2.86a1.7,1.7,0,0,1,1-.35h.13a4.29,4.29,0,0,1,.62.08A1.06,1.06,0,0,1,40.8,36.59Z" transform="translate(0 0)"/><path d="M47,29.86H1a1,1,0,0,0,0,2H47a1,1,0,0,0,0-2Z" transform="translate(0 0)"/></svg>