<?xml version="1.0" encoding="UTF-8" standalone="no"?>
<svg
   xmlns:dc="http://purl.org/dc/elements/1.1/"
   xmlns:cc="http://creativecommons.org/ns#"
   xmlns:rdf="http://www.w3.org/1999/02/22-rdf-syntax-ns#"
   xmlns:svg="http://www.w3.org/2000/svg"
   xmlns="http://www.w3.org/2000/svg"
   xmlns:sodipodi="http://sodipodi.sourceforge.net/DTD/sodipodi-0.dtd"
   xmlns:inkscape="http://www.inkscape.org/namespaces/inkscape"
   viewBox="0 0 319.99999 319.99999"
   id="svg2"
   version="1.1"
   inkscape:version="0.91 r13725"
   sodipodi:docname="twitter.svg"
   width="320"
   height="320">
  <metadata
     id="metadata14">
    <rdf:RDF>
      <cc:Work
         rdf:about="">
        <dc:format>image/svg+xml</dc:format>
        <dc:type
           rdf:resource="http://purl.org/dc/dcmitype/StillImage" />
        <dc:title>IoT_logoArtboard 2</dc:title>
      </cc:Work>
    </rdf:RDF>
  </metadata>
  <sodipodi:namedview
     pagecolor="#ffffff"
     bordercolor="#666666"
     borderopacity="1"
     objecttolerance="10"
     gridtolerance="10"
     guidetolerance="10"
     inkscape:pageopacity="0"
     inkscape:pageshadow="2"
     inkscape:window-width="1982"
     inkscape:window-height="1108"
     id="namedview12"
     showgrid="true"
     inkscape:zoom="0.45254834"
     inkscape:cx="-378.94063"
     inkscape:cy="-17.575847"
     inkscape:window-x="1280"
     inkscape:window-y="0"
     inkscape:window-maximized="1"
     inkscape:current-layer="svg2"
     inkscape:object-paths="true"
     inkscape:snap-intersection-paths="true"
     inkscape:object-nodes="true"
     inkscape:snap-smooth-nodes="true"
     inkscape:snap-object-midpoints="true"
     inkscape:snap-center="true"
     inkscape:snap-others="false"
     fit-margin-top="0"
     fit-margin-left="0"
     fit-margin-right="0"
     fit-margin-bottom="0">
    <inkscape:grid
       type="xygrid"
       id="grid3699"
       originx="-1080"
       originy="360.00002" />
  </sodipodi:namedview>
  <defs
     id="defs4">
    <style
       id="style6">.cls-1{fill:#fff;}</style>
    <style
       id="style6-4">.cls-1{fill:#fff;}</style>
  </defs>
  <title
     id="title8">IoT_logoArtboard 2</title>
  <style
     id="style3466"
     type="text/css">
	.st0{fill:#F05245;}
</style>
  <style
     id="style3"
     type="text/css">
	.st0{fill:#FFFFFF;}
</style>
  <style
     id="style3-5"
     type="text/css">
	.st0{fill:#FFFFFF;}
</style>
  <g
     style="opacity:0.98000004;fill:#299f65;fill-opacity:1"
     id="Logo__x2014__FIXED"
     transform="translate(-40.05,-39.999997)">
    <g
       style="fill:#299f65;fill-opacity:1"
       id="g6">
      <path
         style="fill:#299f65;fill-opacity:1"
         id="path8"
         d="m 153.6,301.6 c 94.3,0 145.9,-78.2 145.9,-145.9 0,-2.2 0,-4.4 -0.1,-6.6 10,-7.2 18.7,-16.3 25.6,-26.6 -9.2,4.1 -19.1,6.8 -29.5,8.1 10.6,-6.3 18.7,-16.4 22.6,-28.4 -9.9,5.9 -20.9,10.1 -32.6,12.4 -9.4,-10 -22.7,-16.2 -37.4,-16.2 -28.3,0 -51.3,23 -51.3,51.3 0,4 0.5,7.9 1.3,11.7 -42.6,-2.1 -80.4,-22.6 -105.7,-53.6 -4.4,7.6 -6.9,16.4 -6.9,25.8 0,17.8 9.1,33.5 22.8,42.7 -8.4,-0.3 -16.3,-2.6 -23.2,-6.4 0,0.2 0,0.4 0,0.7 0,24.8 17.7,45.6 41.1,50.3 -4.3,1.2 -8.8,1.8 -13.5,1.8 -3.3,0 -6.5,-0.3 -9.6,-0.9 6.5,20.4 25.5,35.2 47.9,35.6 -17.6,13.8 -39.7,22 -63.7,22 -4.1,0 -8.2,-0.2 -12.2,-0.7 22.6,14.4 49.6,22.9 78.5,22.9"
         class="st0"
         inkscape:connector-curvature="0" />
    </g>
  </g>
  <style
     id="style3801"
     type="text/css">
	.st0{fill:#F05245;}
</style>
</svg>
